<svg width="1181" height="299" viewBox="0 0 1181 299" fill="none" xmlns="http://www.w3.org/2000/svg">
<g id="lived">
<path id="SUCCESSFULLY COMPILED" d="M48.8281 84.7656C48.8281 88.8281 47.8125 92.2969 45.7812 95.1719C43.7812 98.0156 40.9688 100.188 37.3438 101.688C33.7188 103.188 29.4531 103.938 24.5469 103.938C21.9531 103.938 19.5 103.812 17.1875 103.562C14.875 103.312 12.75 102.953 10.8125 102.484C8.875 102.016 7.17188 101.438 5.70312 100.75V93.1094C8.04688 94.0781 10.9062 94.9844 14.2812 95.8281C17.6562 96.6406 21.1875 97.0469 24.875 97.0469C28.3125 97.0469 31.2188 96.5938 33.5938 95.6875C35.9688 94.75 37.7656 93.4219 38.9844 91.7031C40.2344 89.9531 40.8594 87.8594 40.8594 85.4219C40.8594 83.0781 40.3438 81.125 39.3125 79.5625C38.2812 77.9688 36.5625 76.5312 34.1562 75.25C31.7812 73.9375 28.5312 72.5469 24.4062 71.0781C21.5 70.0469 18.9375 68.9219 16.7188 67.7031C14.5 66.4531 12.6406 65.0469 11.1406 63.4844C9.64062 61.9219 8.5 60.1094 7.71875 58.0469C6.96875 55.9844 6.59375 53.625 6.59375 50.9688C6.59375 47.3125 7.51562 44.1875 9.35938 41.5938C11.2344 38.9688 13.8125 36.9688 17.0938 35.5938C20.4062 34.1875 24.2031 33.4844 28.4844 33.4844C32.1406 33.4844 35.5156 33.8281 38.6094 34.5156C41.7344 35.2031 44.5938 36.125 47.1875 37.2812L44.7031 44.125C42.2344 43.0938 39.6094 42.2344 36.8281 41.5469C34.0781 40.8594 31.2344 40.5156 28.2969 40.5156C25.3594 40.5156 22.875 40.9531 20.8438 41.8281C18.8438 42.6719 17.3125 43.875 16.25 45.4375C15.1875 47 14.6562 48.8594 14.6562 51.0156C14.6562 53.4219 15.1562 55.4219 16.1562 57.0156C17.1875 58.6094 18.8125 60.0312 21.0312 61.2812C23.2812 62.5 26.25 63.7812 29.9375 65.125C33.9688 66.5938 37.3906 68.1562 40.2031 69.8125C43.0156 71.4375 45.1562 73.4375 46.625 75.8125C48.0938 78.1562 48.8281 81.1406 48.8281 84.7656ZM114.688 34.4688V78.8125C114.688 83.6562 113.703 87.9688 111.734 91.75C109.797 95.5312 106.859 98.5156 102.922 100.703C98.9844 102.859 94.0469 103.938 88.1094 103.938C79.6406 103.938 73.1875 101.641 68.75 97.0469C64.3438 92.4531 62.1406 86.3125 62.1406 78.625V34.4688H70.1562V78.8594C70.1562 84.6719 71.6875 89.1562 74.75 92.3125C77.8438 95.4688 82.4531 97.0469 88.5781 97.0469C92.7656 97.0469 96.1875 96.2969 98.8438 94.7969C101.531 93.2656 103.516 91.1406 104.797 88.4219C106.109 85.6719 106.766 82.5 106.766 78.9062V34.4688H114.688ZM162.172 40.5156C158.391 40.5156 154.984 41.1719 151.953 42.4844C148.953 43.7656 146.391 45.6406 144.266 48.1094C142.172 50.5469 140.562 53.5 139.438 56.9688C138.312 60.4375 137.75 64.3438 137.75 68.6875C137.75 74.4375 138.641 79.4375 140.422 83.6875C142.234 87.9062 144.922 91.1719 148.484 93.4844C152.078 95.7969 156.562 96.9531 161.938 96.9531C165 96.9531 167.875 96.7031 170.562 96.2031C173.281 95.6719 175.922 95.0156 178.484 94.2344V101.172C175.984 102.109 173.359 102.797 170.609 103.234C167.859 103.703 164.594 103.938 160.812 103.938C153.844 103.938 148.016 102.5 143.328 99.625C138.672 96.7188 135.172 92.625 132.828 87.3438C130.516 82.0625 129.359 75.8281 129.359 68.6406C129.359 63.4531 130.078 58.7188 131.516 54.4375C132.984 50.125 135.109 46.4062 137.891 43.2812C140.703 40.1562 144.141 37.75 148.203 36.0625C152.297 34.3438 156.984 33.4844 162.266 33.4844C165.734 33.4844 169.078 33.8281 172.297 34.5156C175.516 35.2031 178.422 36.1875 181.016 37.4688L177.828 44.2188C175.641 43.2188 173.234 42.3594 170.609 41.6406C168.016 40.8906 165.203 40.5156 162.172 40.5156ZM222.641 40.5156C218.859 40.5156 215.453 41.1719 212.422 42.4844C209.422 43.7656 206.859 45.6406 204.734 48.1094C202.641 50.5469 201.031 53.5 199.906 56.9688C198.781 60.4375 198.219 64.3438 198.219 68.6875C198.219 74.4375 199.109 79.4375 200.891 83.6875C202.703 87.9062 205.391 91.1719 208.953 93.4844C212.547 95.7969 217.031 96.9531 222.406 96.9531C225.469 96.9531 228.344 96.7031 231.031 96.2031C233.75 95.6719 236.391 95.0156 238.953 94.2344V101.172C236.453 102.109 233.828 102.797 231.078 103.234C228.328 103.703 225.062 103.938 221.281 103.938C214.312 103.938 208.484 102.5 203.797 99.625C199.141 96.7188 195.641 92.625 193.297 87.3438C190.984 82.0625 189.828 75.8281 189.828 68.6406C189.828 63.4531 190.547 58.7188 191.984 54.4375C193.453 50.125 195.578 46.4062 198.359 43.2812C201.172 40.1562 204.609 37.75 208.672 36.0625C212.766 34.3438 217.453 33.4844 222.734 33.4844C226.203 33.4844 229.547 33.8281 232.766 34.5156C235.984 35.2031 238.891 36.1875 241.484 37.4688L238.297 44.2188C236.109 43.2188 233.703 42.3594 231.078 41.6406C228.484 40.8906 225.672 40.5156 222.641 40.5156ZM291.969 103H253.812V34.4688H291.969V41.5H261.781V63.6719H290.234V70.6094H261.781V95.9688H291.969V103ZM345.828 84.7656C345.828 88.8281 344.812 92.2969 342.781 95.1719C340.781 98.0156 337.969 100.188 334.344 101.688C330.719 103.188 326.453 103.938 321.547 103.938C318.953 103.938 316.5 103.812 314.188 103.562C311.875 103.312 309.75 102.953 307.812 102.484C305.875 102.016 304.172 101.438 302.703 100.75V93.1094C305.047 94.0781 307.906 94.9844 311.281 95.8281C314.656 96.6406 318.188 97.0469 321.875 97.0469C325.312 97.0469 328.219 96.5938 330.594 95.6875C332.969 94.75 334.766 93.4219 335.984 91.7031C337.234 89.9531 337.859 87.8594 337.859 85.4219C337.859 83.0781 337.344 81.125 336.312 79.5625C335.281 77.9688 333.562 76.5312 331.156 75.25C328.781 73.9375 325.531 72.5469 321.406 71.0781C318.5 70.0469 315.938 68.9219 313.719 67.7031C311.5 66.4531 309.641 65.0469 308.141 63.4844C306.641 61.9219 305.5 60.1094 304.719 58.0469C303.969 55.9844 303.594 53.625 303.594 50.9688C303.594 47.3125 304.516 44.1875 306.359 41.5938C308.234 38.9688 310.812 36.9688 314.094 35.5938C317.406 34.1875 321.203 33.4844 325.484 33.4844C329.141 33.4844 332.516 33.8281 335.609 34.5156C338.734 35.2031 341.594 36.125 344.188 37.2812L341.703 44.125C339.234 43.0938 336.609 42.2344 333.828 41.5469C331.078 40.8594 328.234 40.5156 325.297 40.5156C322.359 40.5156 319.875 40.9531 317.844 41.8281C315.844 42.6719 314.312 43.875 313.25 45.4375C312.188 47 311.656 48.8594 311.656 51.0156C311.656 53.4219 312.156 55.4219 313.156 57.0156C314.188 58.6094 315.812 60.0312 318.031 61.2812C320.281 62.5 323.25 63.7812 326.938 65.125C330.969 66.5938 334.391 68.1562 337.203 69.8125C340.016 71.4375 342.156 73.4375 343.625 75.8125C345.094 78.1562 345.828 81.1406 345.828 84.7656ZM398.516 84.7656C398.516 88.8281 397.5 92.2969 395.469 95.1719C393.469 98.0156 390.656 100.188 387.031 101.688C383.406 103.188 379.141 103.938 374.234 103.938C371.641 103.938 369.188 103.812 366.875 103.562C364.562 103.312 362.438 102.953 360.5 102.484C358.562 102.016 356.859 101.438 355.391 100.75V93.1094C357.734 94.0781 360.594 94.9844 363.969 95.8281C367.344 96.6406 370.875 97.0469 374.562 97.0469C378 97.0469 380.906 96.5938 383.281 95.6875C385.656 94.75 387.453 93.4219 388.672 91.7031C389.922 89.9531 390.547 87.8594 390.547 85.4219C390.547 83.0781 390.031 81.125 389 79.5625C387.969 77.9688 386.25 76.5312 383.844 75.25C381.469 73.9375 378.219 72.5469 374.094 71.0781C371.188 70.0469 368.625 68.9219 366.406 67.7031C364.188 66.4531 362.328 65.0469 360.828 63.4844C359.328 61.9219 358.188 60.1094 357.406 58.0469C356.656 55.9844 356.281 53.625 356.281 50.9688C356.281 47.3125 357.203 44.1875 359.047 41.5938C360.922 38.9688 363.5 36.9688 366.781 35.5938C370.094 34.1875 373.891 33.4844 378.172 33.4844C381.828 33.4844 385.203 33.8281 388.297 34.5156C391.422 35.2031 394.281 36.125 396.875 37.2812L394.391 44.125C391.922 43.0938 389.297 42.2344 386.516 41.5469C383.766 40.8594 380.922 40.5156 377.984 40.5156C375.047 40.5156 372.562 40.9531 370.531 41.8281C368.531 42.6719 367 43.875 365.938 45.4375C364.875 47 364.344 48.8594 364.344 51.0156C364.344 53.4219 364.844 55.4219 365.844 57.0156C366.875 58.6094 368.5 60.0312 370.719 61.2812C372.969 62.5 375.938 63.7812 379.625 65.125C383.656 66.5938 387.078 68.1562 389.891 69.8125C392.703 71.4375 394.844 73.4375 396.312 75.8125C397.781 78.1562 398.516 81.1406 398.516 84.7656ZM420.5 103H412.531V34.4688H450.688V41.5H420.5V66.625H448.859V73.6094H420.5V103ZM513.969 34.4688V78.8125C513.969 83.6562 512.984 87.9688 511.016 91.75C509.078 95.5312 506.141 98.5156 502.203 100.703C498.266 102.859 493.328 103.938 487.391 103.938C478.922 103.938 472.469 101.641 468.031 97.0469C463.625 92.4531 461.422 86.3125 461.422 78.625V34.4688H469.438V78.8594C469.438 84.6719 470.969 89.1562 474.031 92.3125C477.125 95.4688 481.734 97.0469 487.859 97.0469C492.047 97.0469 495.469 96.2969 498.125 94.7969C500.812 93.2656 502.797 91.1406 504.078 88.4219C505.391 85.6719 506.047 82.5 506.047 78.9062V34.4688H513.969ZM532.156 103V34.4688H540.125V95.875H570.547V103H532.156ZM582.312 103V34.4688H590.281V95.875H620.703V103H582.312ZM649.953 68.8281L668.188 34.4688H676.766L653.938 76.4219V103H645.969V76.7969L623.094 34.4688H631.812L649.953 68.8281ZM740.422 40.5156C736.641 40.5156 733.234 41.1719 730.203 42.4844C727.203 43.7656 724.641 45.6406 722.516 48.1094C720.422 50.5469 718.812 53.5 717.688 56.9688C716.562 60.4375 716 64.3438 716 68.6875C716 74.4375 716.891 79.4375 718.672 83.6875C720.484 87.9062 723.172 91.1719 726.734 93.4844C730.328 95.7969 734.812 96.9531 740.188 96.9531C743.25 96.9531 746.125 96.7031 748.812 96.2031C751.531 95.6719 754.172 95.0156 756.734 94.2344V101.172C754.234 102.109 751.609 102.797 748.859 103.234C746.109 103.703 742.844 103.938 739.062 103.938C732.094 103.938 726.266 102.5 721.578 99.625C716.922 96.7188 713.422 92.625 711.078 87.3438C708.766 82.0625 707.609 75.8281 707.609 68.6406C707.609 63.4531 708.328 58.7188 709.766 54.4375C711.234 50.125 713.359 46.4062 716.141 43.2812C718.953 40.1562 722.391 37.75 726.453 36.0625C730.547 34.3438 735.234 33.4844 740.516 33.4844C743.984 33.4844 747.328 33.8281 750.547 34.5156C753.766 35.2031 756.672 36.1875 759.266 37.4688L756.078 44.2188C753.891 43.2188 751.484 42.3594 748.859 41.6406C746.266 40.8906 743.453 40.5156 740.422 40.5156ZM831.031 68.6406C831.031 73.9219 830.359 78.7344 829.016 83.0781C827.672 87.3906 825.672 91.1094 823.016 94.2344C820.391 97.3281 817.125 99.7188 813.219 101.406C809.312 103.094 804.781 103.938 799.625 103.938C794.312 103.938 789.672 103.094 785.703 101.406C781.766 99.7188 778.484 97.3125 775.859 94.1875C773.266 91.0625 771.312 87.3281 770 82.9844C768.719 78.6406 768.078 73.8281 768.078 68.5469C768.078 61.5469 769.234 55.4062 771.547 50.125C773.859 44.8438 777.359 40.7344 782.047 37.7969C786.766 34.8594 792.672 33.3906 799.766 33.3906C806.547 33.3906 812.25 34.8438 816.875 37.75C821.531 40.6562 825.047 44.75 827.422 50.0312C829.828 55.2812 831.031 61.4844 831.031 68.6406ZM776.469 68.6406C776.469 74.4531 777.297 79.4844 778.953 83.7344C780.609 87.9844 783.141 91.2656 786.547 93.5781C789.984 95.8906 794.344 97.0469 799.625 97.0469C804.938 97.0469 809.281 95.8906 812.656 93.5781C816.062 91.2656 818.578 87.9844 820.203 83.7344C821.828 79.4844 822.641 74.4531 822.641 68.6406C822.641 59.7969 820.781 52.8906 817.062 47.9219C813.375 42.9219 807.609 40.4219 799.766 40.4219C794.453 40.4219 790.078 41.5625 786.641 43.8438C783.203 46.125 780.641 49.375 778.953 53.5938C777.297 57.7812 776.469 62.7969 776.469 68.6406ZM876.453 103L853.438 42.3438H853.062C853.188 43.625 853.297 45.1875 853.391 47.0312C853.484 48.875 853.562 50.8906 853.625 53.0781C853.688 55.2344 853.719 57.4375 853.719 59.6875V103H846.312V34.4688H858.125L879.828 91.4688H880.156L902.188 34.4688H913.906V103H906.031V59.125C906.031 57.0938 906.062 55.0625 906.125 53.0312C906.188 50.9688 906.266 49.0312 906.359 47.2188C906.453 45.375 906.547 43.7812 906.641 42.4375H906.266L882.969 103H876.453ZM950.562 34.4688C959.406 34.4688 965.859 36.2031 969.922 39.6719C974.016 43.1094 976.062 48.0469 976.062 54.4844C976.062 57.3906 975.578 60.1562 974.609 62.7812C973.672 65.375 972.141 67.6719 970.016 69.6719C967.891 71.6406 965.094 73.2031 961.625 74.3594C958.188 75.4844 953.969 76.0469 948.969 76.0469H940.625V103H932.656V34.4688H950.562ZM949.812 41.2656H940.625V69.2031H948.078C952.453 69.2031 956.094 68.7344 959 67.7969C961.938 66.8594 964.141 65.3438 965.609 63.25C967.078 61.125 967.812 58.3125 967.812 54.8125C967.812 50.25 966.359 46.8594 963.453 44.6406C960.547 42.3906 956 41.2656 949.812 41.2656ZM990.406 103V34.4688H998.375V103H990.406ZM1017.22 103V34.4688H1025.19V95.875H1055.61V103H1017.22ZM1105.53 103H1067.38V34.4688H1105.53V41.5H1075.34V63.6719H1103.8V70.6094H1075.34V95.9688H1105.53V103ZM1175.14 68.0781C1175.14 75.7969 1173.73 82.25 1170.92 87.4375C1168.11 92.5938 1164.03 96.4844 1158.69 99.1094C1153.38 101.703 1146.92 103 1139.33 103H1120.72V34.4688H1141.39C1148.36 34.4688 1154.36 35.75 1159.39 38.3125C1164.42 40.8438 1168.3 44.6094 1171.02 49.6094C1173.77 54.5781 1175.14 60.7344 1175.14 68.0781ZM1166.75 68.3594C1166.75 62.2031 1165.72 57.125 1163.66 53.125C1161.62 49.125 1158.62 46.1562 1154.66 44.2188C1150.72 42.25 1145.89 41.2656 1140.17 41.2656H1128.69V96.1562H1138.39C1147.83 96.1562 1154.91 93.8281 1159.62 89.1719C1164.38 84.5156 1166.75 77.5781 1166.75 68.3594Z" fill="black"/>
<g id="restart-button">
<rect id="Rectangle 20" x="441" y="218" width="299" height="81" rx="11" fill="#D9D9D9"/>
<path id="RESTART" d="M528.141 246.301C530.25 246.301 531.99 246.564 533.361 247.092C534.744 247.607 535.775 248.398 536.455 249.465C537.135 250.531 537.475 251.891 537.475 253.543C537.475 254.902 537.229 256.039 536.736 256.953C536.244 257.855 535.6 258.588 534.803 259.15C534.006 259.713 533.156 260.146 532.254 260.451L539.303 272H535.822L529.529 261.277H524.186V272H521.197V246.301H528.141ZM527.965 248.885H524.186V258.746H528.264C530.361 258.746 531.902 258.318 532.887 257.463C533.883 256.607 534.381 255.348 534.381 253.684C534.381 251.938 533.854 250.701 532.799 249.975C531.756 249.248 530.145 248.885 527.965 248.885ZM557.725 272H543.416V246.301H557.725V248.938H546.404V257.252H557.074V259.854H546.404V269.363H557.725V272ZM577.922 265.162C577.922 266.686 577.541 267.986 576.779 269.064C576.029 270.131 574.975 270.945 573.615 271.508C572.256 272.07 570.656 272.352 568.816 272.352C567.844 272.352 566.924 272.305 566.057 272.211C565.189 272.117 564.393 271.982 563.666 271.807C562.939 271.631 562.301 271.414 561.75 271.156V268.291C562.629 268.654 563.701 268.994 564.967 269.311C566.232 269.615 567.557 269.768 568.939 269.768C570.229 269.768 571.318 269.598 572.209 269.258C573.1 268.906 573.773 268.408 574.23 267.764C574.699 267.107 574.934 266.322 574.934 265.408C574.934 264.529 574.74 263.797 574.354 263.211C573.967 262.613 573.322 262.074 572.42 261.594C571.529 261.102 570.311 260.58 568.764 260.029C567.674 259.643 566.713 259.221 565.881 258.764C565.049 258.295 564.352 257.768 563.789 257.182C563.227 256.596 562.799 255.916 562.506 255.143C562.225 254.369 562.084 253.484 562.084 252.488C562.084 251.117 562.43 249.945 563.121 248.973C563.824 247.988 564.791 247.238 566.021 246.723C567.264 246.195 568.688 245.932 570.293 245.932C571.664 245.932 572.93 246.061 574.09 246.318C575.262 246.576 576.334 246.922 577.307 247.355L576.375 249.922C575.449 249.535 574.465 249.213 573.422 248.955C572.391 248.697 571.324 248.568 570.223 248.568C569.121 248.568 568.189 248.732 567.428 249.061C566.678 249.377 566.104 249.828 565.705 250.414C565.307 251 565.107 251.697 565.107 252.506C565.107 253.408 565.295 254.158 565.67 254.756C566.057 255.354 566.666 255.887 567.498 256.355C568.342 256.812 569.455 257.293 570.838 257.797C572.35 258.348 573.633 258.934 574.688 259.555C575.742 260.164 576.545 260.914 577.096 261.805C577.646 262.684 577.922 263.803 577.922 265.162ZM591.07 272H588.064V248.938H579.979V246.301H599.121V248.938H591.07V272ZM619.125 272L615.961 263.844H605.66L602.514 272H599.49L609.545 246.195H612.234L622.219 272H619.125ZM615.064 261.189L612.059 253.086C611.988 252.875 611.871 252.529 611.707 252.049C611.555 251.568 611.396 251.07 611.232 250.555C611.068 250.039 610.934 249.623 610.828 249.307C610.711 249.787 610.582 250.268 610.441 250.748C610.312 251.217 610.184 251.656 610.055 252.066C609.926 252.465 609.814 252.805 609.721 253.086L606.662 261.189H615.064ZM632.73 246.301C634.84 246.301 636.58 246.564 637.951 247.092C639.334 247.607 640.365 248.398 641.045 249.465C641.725 250.531 642.064 251.891 642.064 253.543C642.064 254.902 641.818 256.039 641.326 256.953C640.834 257.855 640.189 258.588 639.393 259.15C638.596 259.713 637.746 260.146 636.844 260.451L643.893 272H640.412L634.119 261.277H628.775V272H625.787V246.301H632.73ZM632.555 248.885H628.775V258.746H632.854C634.951 258.746 636.492 258.318 637.477 257.463C638.473 256.607 638.971 255.348 638.971 253.684C638.971 251.938 638.443 250.701 637.389 249.975C636.346 249.248 634.734 248.885 632.555 248.885ZM655.898 272H652.893V248.938H644.807V246.301H663.949V248.938H655.898V272Z" fill="black"/>
</g>
</g>
</svg>
